<mxfile host="Electron" modified="2024-05-28T07:16:56.137Z" agent="Mozilla/5.0 (Macintosh; Intel Mac OS X 10_15_7) AppleWebKit/537.36 (KHTML, like Gecko) draw.io/24.4.8 Chrome/124.0.6367.207 Electron/30.0.6 Safari/537.36" etag="Lxp8pZkRjpIlJZ7tZZ3u" version="24.4.8" type="device">
  <diagram name="第 1 页" id="XVE3iO0NwDQ5ZgX1CONY">
    <mxGraphModel dx="1727" dy="674" grid="1" gridSize="10" guides="1" tooltips="1" connect="1" arrows="1" fold="1" page="1" pageScale="1" pageWidth="827" pageHeight="1169" math="0" shadow="0">
      <root>
        <mxCell id="0" />
        <mxCell id="1" parent="0" />
        <mxCell id="2usj6qcsEBOuH9dcHzZB-1" value="&lt;font face=&quot;Comic Sans MS&quot;&gt;预加载&lt;/font&gt;" style="rounded=1;whiteSpace=wrap;html=1;strokeWidth=2;fillWeight=4;hachureGap=8;hachureAngle=45;sketch=1;fillColor=none;" vertex="1" parent="1">
          <mxGeometry x="70" y="80" width="120" height="60" as="geometry" />
        </mxCell>
        <mxCell id="2usj6qcsEBOuH9dcHzZB-2" value="用户" style="shape=umlActor;verticalLabelPosition=bottom;verticalAlign=top;html=1;outlineConnect=0;fillColor=none;sketch=1;" vertex="1" parent="1">
          <mxGeometry x="-90" y="80" width="30" height="60" as="geometry" />
        </mxCell>
        <mxCell id="2usj6qcsEBOuH9dcHzZB-3" value="" style="endArrow=classic;html=1;entryX=0;entryY=0.5;entryDx=0;entryDy=0;sketch=1;" edge="1" parent="1" target="2usj6qcsEBOuH9dcHzZB-1">
          <mxGeometry width="50" height="50" relative="1" as="geometry">
            <mxPoint x="-50" y="110" as="sourcePoint" />
            <mxPoint y="80" as="targetPoint" />
          </mxGeometry>
        </mxCell>
        <mxCell id="2usj6qcsEBOuH9dcHzZB-4" value="&lt;font face=&quot;Comic Sans MS&quot;&gt;是否请求&lt;br&gt;首页&lt;/font&gt;" style="rhombus;whiteSpace=wrap;html=1;strokeWidth=2;fillWeight=-1;hachureGap=8;fillStyle=cross-hatch;sketch=1;strokeColor=#FFB570;fillColor=none;" vertex="1" parent="1">
          <mxGeometry x="70" y="330" width="120" height="60" as="geometry" />
        </mxCell>
        <mxCell id="2usj6qcsEBOuH9dcHzZB-5" value="" style="edgeStyle=elbowEdgeStyle;elbow=vertical;endArrow=classic;html=1;exitX=0.5;exitY=1;exitDx=0;exitDy=0;sketch=1;entryX=0.5;entryY=0;entryDx=0;entryDy=0;" edge="1" parent="1" source="2usj6qcsEBOuH9dcHzZB-1" target="2usj6qcsEBOuH9dcHzZB-6">
          <mxGeometry width="50" height="50" relative="1" as="geometry">
            <mxPoint x="-10" y="200" as="sourcePoint" />
            <mxPoint x="270" y="30" as="targetPoint" />
            <Array as="points">
              <mxPoint x="180" y="160" />
            </Array>
          </mxGeometry>
        </mxCell>
        <mxCell id="2usj6qcsEBOuH9dcHzZB-6" value="&lt;font face=&quot;Comic Sans MS&quot;&gt;从缓存缓存数据&lt;br&gt;【feed_list_$userId】&lt;/font&gt;" style="rounded=1;whiteSpace=wrap;html=1;strokeWidth=2;fillWeight=4;hachureGap=8;hachureAngle=45;sketch=1;fillColor=none;" vertex="1" parent="1">
          <mxGeometry x="60" y="220" width="140" height="60" as="geometry" />
        </mxCell>
        <mxCell id="2usj6qcsEBOuH9dcHzZB-7" value="是" style="edgeStyle=elbowEdgeStyle;elbow=vertical;endArrow=classic;html=1;exitX=0.5;exitY=1;exitDx=0;exitDy=0;sketch=1;entryX=0.5;entryY=0;entryDx=0;entryDy=0;" edge="1" parent="1" source="2usj6qcsEBOuH9dcHzZB-4" target="2usj6qcsEBOuH9dcHzZB-9">
          <mxGeometry width="50" height="50" relative="1" as="geometry">
            <mxPoint x="-20" y="270" as="sourcePoint" />
            <mxPoint x="160" y="480" as="targetPoint" />
            <Array as="points">
              <mxPoint x="140" y="440" />
              <mxPoint x="150" y="460" />
              <mxPoint x="170" y="600" />
              <mxPoint x="130" y="570" />
            </Array>
          </mxGeometry>
        </mxCell>
        <mxCell id="2usj6qcsEBOuH9dcHzZB-8" value="" style="edgeStyle=elbowEdgeStyle;elbow=vertical;endArrow=classic;html=1;exitX=0.5;exitY=1;exitDx=0;exitDy=0;entryX=0.5;entryY=0;entryDx=0;entryDy=0;sketch=1;" edge="1" parent="1" source="2usj6qcsEBOuH9dcHzZB-6" target="2usj6qcsEBOuH9dcHzZB-4">
          <mxGeometry width="50" height="50" relative="1" as="geometry">
            <mxPoint x="80" y="340" as="sourcePoint" />
            <mxPoint x="60" y="330" as="targetPoint" />
          </mxGeometry>
        </mxCell>
        <mxCell id="2usj6qcsEBOuH9dcHzZB-9" value="&lt;font face=&quot;Comic Sans MS&quot;&gt;（1）缓存续期&lt;br&gt;（2）设置最后拉取事件&lt;br&gt;（3）清楚新动态提示缓存&lt;/font&gt;" style="rounded=1;whiteSpace=wrap;html=1;strokeWidth=2;fillWeight=4;hachureGap=8;hachureAngle=45;sketch=1;fillColor=none;align=left;" vertex="1" parent="1">
          <mxGeometry x="55" y="460" width="150" height="60" as="geometry" />
        </mxCell>
        <mxCell id="2usj6qcsEBOuH9dcHzZB-10" value="&lt;font face=&quot;Comic Sans MS&quot; color=&quot;#ff0000&quot;&gt;复杂的分页&lt;br&gt;选择数据逻辑&lt;/font&gt;" style="ellipse;whiteSpace=wrap;html=1;strokeWidth=2;fillWeight=2;hachureGap=8;fillStyle=dots;sketch=1;fillColor=none;" vertex="1" parent="1">
          <mxGeometry x="300" y="380" width="120" height="60" as="geometry" />
        </mxCell>
        <mxCell id="2usj6qcsEBOuH9dcHzZB-11" value="否" style="edgeStyle=elbowEdgeStyle;elbow=vertical;endArrow=classic;html=1;exitX=1;exitY=0.5;exitDx=0;exitDy=0;sketch=1;" edge="1" parent="1" source="2usj6qcsEBOuH9dcHzZB-4" target="2usj6qcsEBOuH9dcHzZB-10">
          <mxGeometry width="50" height="50" relative="1" as="geometry">
            <mxPoint x="230" y="340" as="sourcePoint" />
            <mxPoint x="280" y="290" as="targetPoint" />
            <Array as="points">
              <mxPoint x="260" y="360" />
            </Array>
          </mxGeometry>
        </mxCell>
        <mxCell id="2usj6qcsEBOuH9dcHzZB-12" value="结束" style="ellipse;shape=doubleEllipse;whiteSpace=wrap;html=1;sketch=1;fillColor=none;strokeColor=#00CC00;" vertex="1" parent="1">
          <mxGeometry x="310" y="480" width="100" height="60" as="geometry" />
        </mxCell>
        <mxCell id="2usj6qcsEBOuH9dcHzZB-13" value="" style="edgeStyle=elbowEdgeStyle;elbow=vertical;endArrow=classic;html=1;entryX=0;entryY=0.5;entryDx=0;entryDy=0;exitX=1;exitY=0.5;exitDx=0;exitDy=0;sketch=1;" edge="1" parent="1" source="2usj6qcsEBOuH9dcHzZB-9" target="2usj6qcsEBOuH9dcHzZB-12">
          <mxGeometry width="50" height="50" relative="1" as="geometry">
            <mxPoint x="200" y="490" as="sourcePoint" />
            <mxPoint x="250" y="440" as="targetPoint" />
            <Array as="points">
              <mxPoint x="270" y="510" />
              <mxPoint x="250" y="490" />
            </Array>
          </mxGeometry>
        </mxCell>
        <mxCell id="2usj6qcsEBOuH9dcHzZB-14" value="" style="edgeStyle=elbowEdgeStyle;elbow=vertical;endArrow=classic;html=1;entryX=0.5;entryY=0;entryDx=0;entryDy=0;exitX=0.5;exitY=1;exitDx=0;exitDy=0;sketch=1;" edge="1" parent="1" source="2usj6qcsEBOuH9dcHzZB-10" target="2usj6qcsEBOuH9dcHzZB-12">
          <mxGeometry width="50" height="50" relative="1" as="geometry">
            <mxPoint x="470" y="450" as="sourcePoint" />
            <mxPoint x="520" y="400" as="targetPoint" />
          </mxGeometry>
        </mxCell>
      </root>
    </mxGraphModel>
  </diagram>
</mxfile>
